<?xml version="1.0" encoding="utf-8"?>
<!-- Generator: Adobe Illustrator 22.0.0, SVG Export Plug-In . SVG Version: 6.00 Build 0)  -->
<svg version="1.1" id="Layer_1" xmlns="http://www.w3.org/2000/svg" xmlns:xlink="http://www.w3.org/1999/xlink" x="0px" y="0px"
	 viewBox="0 0 532.3 561.9" style="enable-background:new 0 0 532.3 561.9;" xml:space="preserve">
<g>
	<g>
		<path class="svg" d="M532.3,156.5c-83.6,41.4-167.1,82.7-251.4,124.4c84.1,42.2,167.3,84,250.5,125.9c-48.3,100.6-165.6,172-294.4,151.5
			C98.2,536.2,0.3,417,0,281.5C-0.3,149.8,92.2,30.8,228.9,4.9C360.6-19.9,482,51.6,532.3,156.5z M328.5,159.6
			c21-0.1,37.9-16.4,37.9-36.5s-16.9-36.4-37.9-36.5c-21.2-0.1-38.3,16.4-38.1,36.7C290.5,143.5,307.6,159.7,328.5,159.6z"/>
		<path d="M328.5,159.6c-21,0.1-38-16.1-38.1-36.3c-0.1-20.3,17-36.8,38.1-36.7c21,0.1,37.9,16.4,37.9,36.5S349.5,159.5,328.5,159.6
			z"/>
	</g>
</g>
</svg>
