<?xml version="1.0" encoding="utf-8"?>
<!-- Generator: Adobe Illustrator 22.0.0, SVG Export Plug-In . SVG Version: 6.00 Build 0)  -->
<svg version="1.1" id="Layer_1" xmlns="http://www.w3.org/2000/svg" xmlns:xlink="http://www.w3.org/1999/xlink" x="0px" y="0px"
	 viewBox="0 0 129 129.7" style="enable-background:new 0 0 129 129.7;" xml:space="preserve">
<g>
	<g>
		<path class="svg" d="M128.1,129.7c-4.9-4.5-8.8-8.1-12.8-11.8c-3.4,3.7-6.7,7.3-10.3,11.3c-3.4-3.7-6.8-7.4-10.3-11.2
			c-3.5,3.8-6.7,7.3-10.3,11.2c-3.5-3.7-6.8-7.2-10.4-11.1c-3.3,3.6-6.5,6.9-10,10.7c-3.3-3.6-6.4-7-9.8-10.7
			c-3.5,3.7-6.8,7.3-10.6,11.4c-3.5-3.8-6.8-7.4-10.4-11.4c-3.5,3.7-6.8,7.3-10.6,11.4c-3.5-3.8-6.8-7.4-11.2-12.3
			c-3.4,4.3-6.7,8.4-10,12.5c-0.5-0.3-0.9-0.6-1.4-0.9c0-2.1,0-4.2,0-6.3c0.2-21.7-0.2-43.3,0.7-65C2.1,23.9,33.4-3.7,71.6,0.4
			c28.4,3,49.7,21.7,55.8,47.6c0.9,4,1.5,8.2,1.5,12.3c0.2,20.5,0.1,41,0.1,61.5C128.8,124,128.4,126.2,128.1,129.7z M39.1,67.2
			c6.4-0.1,11.3-5.3,11.2-11.7c-0.1-6.4-5.3-11.3-11.7-11.2c-6.4,0.1-11.3,5.2-11.2,11.6C27.6,62.4,32.7,67.3,39.1,67.2z
			 M100.3,55.8c0-6.4-5-11.4-11.4-11.4c-6.4,0-11.4,5-11.4,11.4s5,11.4,11.4,11.4C95.2,67.2,100.3,62.2,100.3,55.8z"/>
	</g>
</g>
</svg>
